<mxfile host="app.diagrams.net" modified="2023-10-16T12:43:02.008Z" agent="Mozilla/5.0 (Windows NT 10.0; Win64; x64) AppleWebKit/537.36 (KHTML, like Gecko) Chrome/118.0.0.0 Safari/537.36 Edg/118.0.2088.46" version="22.0.4" etag="g_Fskf0x7wnionasQzmZ" type="github">
  <diagram name="PÃ¡gina-1" id="L3PUTeM4myhtaXMjBlmP">
    <mxGraphModel>
      <root>
        <mxCell id="0" />
        <mxCell id="1" parent="0" />
      </root>
    </mxGraphModel>
  </diagram>
</mxfile>
